# xmcd
#
# Track frame offsets:
#  150
#  12310
#  22847
#  33302
#  44102
#  57665
#  70890
#  83297
#  104505
#  116810
#  130672
#  142655
#  158065
#  171432
#  185327
#  195550
#
# Disc length: 2771 seconds
#
# Revision: 5
# Processed by: cddbd v1.5.1PL2 Copyright (c) Steve Scherf et al.
# Submitted via: Collectorz.com_Music_Collector 6.9
#
DISCID=d30ad110
DTITLE=Various Artist - Play Me The Blues... [CD6]
DYEAR=1993
DGENRE=Blues
TTITLE0=John Mayall - Lost And Gone
TTITLE1=Howlin' Wolf - Who's Been Talking
TTITLE2=Eric Clapton - West Coast Idea
TTITLE3=Johnny Guitar Watson - Reconsider Baby
TTITLE4=Memphis Slim - Slim's Blues
TTITLE5=Little Walter - Roller Coaster
TTITLE6=Nina Simone - Do I Move Yoy?
TTITLE7=Mike Bloomfield - Cherry Red
TTITLE8=John Lee Hooker - I'm In The Mood Part 1
TTITLE9=Eric Clapton - Draggin' My Tail
TTITLE10=B.B. King - Dark Is The Night Part 1
TTITLE11=Sonny Boy Williamson - Cross My Heart
TTITLE12=Muddy Waters - Rollin' And Tumblin'
TTITLE13=Howlin' Wolf - Highway 49
TTITLE14=Big Joe Williams - 44 Blues
TTITLE15=Elmore James - Happy Home
EXTD=
EXTT0=
EXTT1=
EXTT2=
EXTT3=
EXTT4=
EXTT5=
EXTT6=
EXTT7=
EXTT8=
EXTT9=
EXTT10=
EXTT11=
EXTT12=
EXTT13=
EXTT14=
EXTT15=
PLAYORDER=
